<svg xmlns="http://www.w3.org/2000/svg" viewBox="0 0 120 34">
  <path d="M33.9473 0v34H0V0z"/>
  <path d="M18.9109 11.1711v3.8858h8.2446v3.8858h-8.2446v7.7715l-6.2741-9.7155 6.2741-9.7155h9.2151v3.8858h-9.2151zM8.24219 19.2122v7.502h4.84591zM13.0881 7.28533H8.24219v7.50207z" fill="#fff"/>
  <path d="m44.7259 9.66033 2.9749-3.61625h2.1232l-2.9983 3.55683 3.2568 5.11879h-2.2312l-2.3139-3.5823-.8136.9698v2.6125h-1.9113V6.04408h1.9113v3.61625zM56.115 14.7197l-2.9983-5.80427v5.80427h-1.7693V6.04408h2.2418l2.8796 5.88702V6.04408h1.7693v8.67562h-2.1252zm6.7657-1.2288h.8729v1.2288H60.107v-1.2288h.873V7.27284h-.873V6.04408h3.6466v1.22876h-.8729zm6.0409-3.179h3.1509v4.55h-1.2036l-.1886-1.0166c-.4958.6388-1.2755 1.0166-2.1718 1.0166-2.1719 0-3.4454-1.4771-3.4454-4.2911 0-3.31069 1.6062-4.68164 3.8119-4.68164 1.9007 0 2.9983 1.12265 3.0089 3.16847l-1.8774.14218c-.0233-1.43037-.5784-1.79539-1.2628-1.79539-.9196 0-1.6634.72155-1.6634 3.08568 0 2.1286.6971 2.8735 1.7354 2.8735.8031 0 1.5341-.5093 1.5807-1.6659h-1.4748zm11.9189 4.4078h-1.924v-3.5229H75.967v3.5229h-1.9112V6.04408h1.9112v3.5823h2.9495v-3.5823h1.924zm3.7081-7.12641h-2.2884V6.04408h6.5029v1.54921h-2.2905v7.12851h-1.924zM44.7259 25.4538v3.4508h-1.9113V20.229h5.1108v1.5492H44.728v2.1752h2.7863v1.5004zm4.4094-.8509c0-2.8841 1.4875-4.5267 3.8352-4.5267 2.3478 0 3.5746 1.6065 3.5746 4.3845 0 2.9201-1.2734 4.5861-3.7525 4.5861-2.4792 0-3.6594-1.6193-3.6594-4.4439zm5.4054-.1062c0-2.0097-.5192-2.884-1.6274-2.884s-1.7693.8637-1.7693 2.9307c0 2.0671.5319 3.003 1.7121 3.003s1.6867-.8977 1.6867-3.0497zm8.4014-4.2677h1.888v5.5665c0 2.0692-1.1104 3.2513-3.4581 3.2513-2.4897 0-3.3521-1.2521-3.3521-3.3213V20.229h1.8773v4.9893c0 1.5131.2946 2.3047 1.5341 2.3047 1.2396 0 1.5108-.7322 1.5108-2.2941zm8.7108 8.6756-2.9982-5.8043v5.8043h-1.7693V20.229h2.2418l2.8796 5.887v-5.887h1.7693v8.6756h-2.1253zm4.2251 0V20.229h2.1232c3.28 0 4.545 1.4431 4.545 4.1616 0 3.0136-1.2628 4.5161-4.5662 4.5161h-2.0999zm2.3711-1.5599c1.5214 0 2.3244-.7088 2.3244-2.8374 0-2.1285-.731-2.7312-2.3244-2.7312h-.4598v5.5686zm10.105-7.1157 2.9157 8.6756h-1.96l-.6611-1.997h-2.9983l-.6378 1.997H83.112l2.8562-8.6756zm-1.2162 1.7614h-.0233l-1.0616 3.4507h2.1825zm6.433-.2122h-2.2884V20.229h6.5029v1.5492h-2.2905v7.1285h-1.924zm8.4501 5.8976h.873v1.2288h-3.6466v-1.2288h.8726v-6.2181h-.8726V20.229h3.6466v1.2287h-.873zm2.208-3.0729c0-2.8841 1.487-4.5267 3.835-4.5267s3.575 1.6065 3.575 4.3845c0 2.9201-1.274 4.5861-3.753 4.5861s-3.659-1.6193-3.659-4.4439zm5.405-.1062c0-2.0097-.519-2.884-1.627-2.884s-1.769.8637-1.769 2.9307c0 2.0671.532 3.003 1.712 3.003s1.686-.8977 1.686-3.0497zm8.239 4.4079-2.999-5.8043v5.8043h-1.769V20.229h2.242l2.879 5.887v-5.887h1.77v8.6756h-2.126z"/>
</svg>
